<?xml version="1.0" encoding="UTF-8"?>
<svg id="Layer_1" data-name="Layer 1" xmlns="http://www.w3.org/2000/svg" viewBox="0 0 399.82 399.82">
  <defs>
    <style>
      .cls-1 {
        fill: #ffab0b;
      }
    </style>
  </defs>
  <path class="cls-1" d="M255.68,260.88c.36-1.63-.13-3.33-1.31-4.5l-35.36-35.36c10.39-14.32,8.83-34.07-3.68-46.58-12.51-12.51-32.26-14.07-46.58-3.68l-35.37-35.36c-1.18-1.18-2.88-1.67-4.5-1.31-1.63.36-2.96,1.53-3.53,3.09l-29.11,80.05c-9.6,26.27-24.8,50.14-44.55,69.95-7.98,7.98-7.98,20.91,0,28.89l22,22c7.98,7.98,20.91,7.98,28.89,0,.14-.13.28-.26.41-.4l45.49,45.49c1.9,1.9,4.99,1.9,6.89,0,14.06-14.05,14.06-36.84,0-50.89l-20.27-20.27c11.76-7.5,24.31-13.7,37.42-18.48l80.05-29.11c1.56-.57,2.73-1.9,3.09-3.52ZM189.87,173.64c9.58,0,18.4,5.22,23.01,13.62,4.61,8.4,4.26,18.65-.9,26.72l-36.23-36.23c4.21-2.7,9.11-4.13,14.12-4.12ZM88.14,334.29c-2.83,0-5.55-1.12-7.55-3.13l-22-22c-4.17-4.17-4.17-10.93,0-15.1,3.8-3.8,7.44-7.76,10.93-11.87l38.03,38.04c-4.1,3.49-8.06,7.13-11.87,10.93-2,2.01-4.71,3.14-7.55,3.13ZM148.48,339.16c8.91,8.92,10.23,22.91,3.13,33.33l-41.53-41.53c5.34-4.78,10.95-9.26,16.79-13.41l21.61,21.61ZM169.2,284.35c-19.41,7.09-37.63,17.12-54,29.73l-39.51-39.51c12.61-16.38,22.63-34.59,29.72-54.01l26.49-72.86,110.16,110.16-72.86,26.5Z"/>
  <path class="cls-1" d="M242.96,157.25c-15.01-15.04-37.56-19.64-57.26-11.68-2.5,1.01-3.71,3.85-2.7,6.35s3.85,3.71,6.35,2.7c16.07-6.48,34.46-2.73,46.72,9.53s16.01,30.64,9.53,46.72c-1.01,2.5.2,5.34,2.7,6.34s5.34-.2,6.34-2.7c7.96-19.7,3.36-42.25-11.68-57.26Z"/>
  <path class="cls-1" d="M272.02,226.27c2.5,1.01,5.34-.2,6.35-2.7,11.71-29.07,4.93-62.33-17.23-84.5-22.16-22.17-55.42-28.95-84.5-17.23-2.5,1.01-3.71,3.85-2.7,6.35s3.85,3.71,6.35,2.7c25.45-10.25,54.56-4.32,73.96,15.08,19.4,19.4,25.33,48.51,15.08,73.96-1.01,2.5.2,5.34,2.7,6.35Z"/>
  <path class="cls-1" d="M326.37,0c-40.56,0-73.44,32.88-73.44,73.44s32.88,73.44,73.44,73.44,73.44-32.88,73.44-73.44c-.04-40.54-32.9-73.4-73.44-73.44ZM326.37,137.13c-35.18,0-63.69-28.52-63.69-63.69s28.52-63.69,63.69-63.69,63.69,28.52,63.69,63.69c-.04,35.16-28.53,63.65-63.69,63.69Z"/>
  <path class="cls-1" d="M352.76,64.91c10.06,0,18.22-8.15,18.23-18.21.01-10.06-8.12-18.23-18.18-18.26s-18.24,8.1-18.28,18.16l-22.61,13.06c-7.3-6.32-18.25-5.85-24.99,1.06-6.74,6.91-6.92,17.87-.42,25.01,6.5,7.13,17.44,7.96,24.94,1.89l23.18,14.53c.96,9.01,8.37,15.95,17.42,16.31,9.05.36,16.99-5.96,18.67-14.87,1.67-8.9-3.44-17.68-12-20.62-8.56-2.95-17.99.83-22.15,8.88l-19.43-12.17c1.39-3.83,1.46-8.01.2-11.88l19.93-11.51c3.32,5.36,9.18,8.63,15.49,8.63ZM352.76,38.2c4.68,0,8.48,3.8,8.48,8.48s-3.8,8.48-8.48,8.48-8.48-3.8-8.48-8.48c0-4.68,3.8-8.48,8.49-8.48ZM299.99,81.92c-4.68,0-8.48-3.8-8.48-8.48s3.8-8.48,8.48-8.48,8.48,3.8,8.48,8.48c0,4.68-3.8,8.48-8.49,8.48ZM352.76,91.72c4.68,0,8.48,3.8,8.48,8.48s-3.8,8.48-8.48,8.48-8.48-3.8-8.48-8.48c0-4.68,3.8-8.48,8.49-8.48Z"/>
  <path class="cls-1" d="M326.37,252.93c-40.56,0-73.44,32.88-73.44,73.44s32.88,73.44,73.44,73.44,73.44-32.88,73.44-73.44c-.04-40.54-32.9-73.4-73.44-73.44ZM326.37,390.07c-35.18,0-63.69-28.52-63.69-63.69s28.52-63.69,63.69-63.69,63.69,28.52,63.69,63.69c-.04,35.16-28.53,63.65-63.69,63.69Z"/>
  <path class="cls-1" d="M356.53,322.23l-39.94-24.71c-1.5-.93-3.39-.97-4.94-.11-1.54.86-2.5,2.49-2.5,4.26v49.41c0,1.77.96,3.4,2.5,4.26,1.55.86,3.43.82,4.94-.11l39.94-24.7c1.44-.89,2.31-2.46,2.31-4.15s-.87-3.26-2.31-4.15h0ZM318.9,342.33v-31.91l25.79,15.95-25.79,15.95Z"/>
  <path class="cls-1" d="M73.44,146.88c40.56,0,73.44-32.88,73.44-73.44S114,0,73.44,0,0,32.88,0,73.44c.04,40.54,32.9,73.4,73.44,73.44ZM73.44,9.75c35.18,0,63.69,28.52,63.69,63.69s-28.52,63.69-63.69,63.69S9.75,108.62,9.75,73.44c.04-35.16,28.53-63.65,63.69-63.69Z"/>
  <path class="cls-1" d="M43.48,102.6h34.89c7.18,0,13-5.82,13-13v-.77l17.82,9.78c1.51.83,3.35.8,4.83-.08,1.49-.88,2.39-2.47,2.39-4.2v-41.77c0-1.72-.91-3.32-2.39-4.2-1.48-.88-3.32-.91-4.83-.08l-17.82,9.78v-.78c0-7.18-5.82-12.99-13-13h-34.89c-7.18,0-12.99,5.82-13,13v32.31c0,7.18,5.82,12.99,13,13ZM106.66,60.8v25.29l-15.29-8.39v-8.52l15.29-8.39ZM40.23,57.28c0-1.79,1.45-3.25,3.25-3.25h34.89c1.8,0,3.25,1.46,3.25,3.25v32.31c0,1.79-1.45,3.25-3.25,3.25h-34.89c-1.8,0-3.25-1.46-3.25-3.25v-32.31Z"/>
</svg>