<?xml version="1.0" encoding="UTF-8"?>
<svg id="Layer_1" data-name="Layer 1" xmlns="http://www.w3.org/2000/svg" viewBox="0 0 336.92 400.38">
  <defs>
    <style>
      .cls-1 {
        fill: #ffab0b;
      }
    </style>
  </defs>
  <path class="cls-1" d="M321.66,175.42L39.76,5.17C34.08,1.74,28.45,0,23.05,0,11.58,0,0,8.54,0,27.61v345.25c0,19.01,11.5,27.52,22.91,27.53h0c5.43,0,11.08-1.77,16.8-5.27l282.09-172.52c9.64-5.9,15.16-14.51,15.13-23.63-.03-9.12-5.59-17.7-15.26-23.54ZM238.81,144.48l-39.9,43.13L55.04,33.49l183.76,110.98ZM18.84,382.21c-2.18-2.52-2.5-7.01-2.5-9.35V27.61c0-2.76.39-6.75,2.3-9.16l169.14,181.18L18.84,382.21ZM56.25,365.84l142.71-154.23,39.79,42.62-182.5,111.61ZM313.27,208.65l-60.29,36.87-42.89-45.95,43-46.48,60.12,36.31c4.67,2.82,7.36,6.32,7.37,9.6s-2.66,6.79-7.31,9.64Z"/>
  <path class="cls-1" d="M41.51,138.53c-4.51,0-8.17,3.66-8.17,8.17v3.58c0,4.51,3.66,8.17,8.17,8.17s8.17-3.66,8.17-8.17v-3.58c0-4.51-3.66-8.17-8.17-8.17Z"/>
  <path class="cls-1" d="M41.51,167.97c-4.51,0-8.17,3.66-8.17,8.17v77.63c0,4.51,3.66,8.17,8.17,8.17s8.17-3.66,8.17-8.17v-77.63c0-4.51-3.66-8.17-8.17-8.17Z"/>
</svg>