<?xml version="1.0" encoding="UTF-8"?>
<svg id="Layer_1" data-name="Layer 1" xmlns="http://www.w3.org/2000/svg" viewBox="0 0 396.78 400.51">
  <defs>
    <style>
      .cls-1 {
        fill: #ffab0b;
      }
    </style>
  </defs>
  <g id="_OUTLINE" data-name=" OUTLINE">
    <path class="cls-1" d="M191.78,87.38h13.23v19.84h-13.23v-19.84Z"/>
    <path class="cls-1" d="M226.74,109.17l13.22-13.22,9.35,9.35-13.22,13.22-9.35-9.35Z"/>
    <path class="cls-1" d="M249.26,134.11l19.85-6.61,4.18,12.55-19.85,6.61-4.18-12.55Z"/>
    <path class="cls-1" d="M365.86,235.67l30.92-5.61v-60.52l-30.92-5.61-11.13-34.64,21.74-22.91-35.23-49-28.31,13.86-29.07-21.36,4.25-31.13L231.03,0l-14.7,27.77h-35.88L165.76,0l-57.08,18.76,4.25,31.13-29.07,21.36-28.31-13.86-35.23,49.01,21.74,22.91-11.13,34.64-30.92,5.61v60.52l30.92,5.61,11.13,34.64-14.68,15.46H0v13.23h13.23v72.74H0v13.23h97.79c.47,0,.93.05,1.39.15l61.45,13.17c6.87,1.48,13.89,2.23,20.92,2.23,14.04,0,27.91-3.02,40.7-8.82l157.05-70.92c13.27-5.99,19.16-21.6,13.17-34.87-5.7-12.62-20.19-18.68-33.17-13.87l-2.17.8-2.4-2.53,11.13-34.64ZM26.45,299h33.07v72.74H26.45v-72.74ZM363.88,284.44c5.92-2.19,12.57.14,15.82,5.56,3.73,6.22,1.71,14.28-4.5,18.01-.44.26-.89.5-1.35.71l-157.05,70.92c-16.72,7.6-35.45,9.6-53.4,5.71l-61.45-13.17c-1.37-.29-2.76-.44-4.16-.44h-25.05v-73.79c8.69-1.87,16.64-6.21,22.91-12.51l9.82-9.82c6.19-6.22,14.61-9.71,23.38-9.68h76.15c7.3,0,13.23,5.92,13.23,13.23s-5.92,13.23-13.23,13.23h-79.36v13.23h17.63l39.61,29.7c8.98,6.76,20.79,8.48,31.32,4.55l149.67-55.43ZM142.65,227.17l7.3,25.54h-20.94l2.99-9.72c1.92-6.2,5.63-11.7,10.65-15.81ZM163.7,252.71l-9.09-31.8c.32-.09.64-.19.97-.28l22.97-5.74v4.76c0,4.92,1.83,9.67,5.14,13.31l-3.95,19.75h-16.04ZM191.78,219.64v-6.61h13.23v6.61c0,3.65-2.96,6.61-6.61,6.61s-6.61-2.96-6.61-6.61ZM210.81,197.86c-.61.61-1.17,1.26-1.7,1.94h-4.11v-23.71l11.29-11.29-9.35-9.35-8.55,8.55-8.55-8.55-9.35,9.35,11.29,11.29v23.71h-4.11c-.52-.68-1.09-1.33-1.7-1.94l-6.28-6.28c-4.98-4.95-7.77-11.69-7.75-18.7v-12.76c.01-14.61,11.86-26.44,26.47-26.43,14.59.01,26.42,11.84,26.43,26.43v12.76c.02,7.02-2.77,13.75-7.75,18.7l-6.28,6.28ZM195.91,239.32c1.65.21,3.32.21,4.96,0l2.68,13.39h-10.32l2.68-13.39ZM217.69,255.95l-4.6-23c3.31-3.64,5.15-8.39,5.14-13.31v-4.76l22.91,5.73-16.39,40.97c-2.02-2.27-4.41-4.17-7.06-5.63ZM231.42,280.52l21.67-54.17c5.54,4.18,9.63,10,11.7,16.63l15.92,51.74c-5.67,4.92-11.77,9.33-18.22,13.17l-52.86,19.58c-6.32,2.36-13.41,1.33-18.79-2.73l-25.5-19.12h39.68c14.07-.02,25.68-11.04,26.42-25.09ZM277.43,239.09c-4.81-15.47-17.32-27.32-33.02-31.3l-19.86-4.96,1.9-1.9c7.47-7.42,11.65-17.53,11.62-28.06v-12.76c0-21.91-17.76-39.68-39.68-39.68s-39.68,17.76-39.68,39.68v12.76c-.03,10.53,4.16,20.63,11.62,28.06l1.9,1.9-19.86,4.96c-15.7,3.98-28.21,15.83-33.02,31.3l-4.89,15.9c-6.92,2.26-13.2,6.12-18.34,11.27l-2.67,2.67c-13.58-20.49-20.78-44.55-20.71-69.13,0-69.28,56.37-125.65,125.65-125.65s125.65,56.36,125.65,125.65c.05,31.27-11.61,61.42-32.7,84.52l-13.92-45.23ZM300.63,293.76c23.6-25.59,36.69-59.14,36.63-93.96,0-76.58-62.3-138.87-138.87-138.87S59.52,123.23,59.52,199.8c-.08,28.04,8.4,55.44,24.31,78.52-5.89,4.84-13.29,7.47-20.91,7.45h-17.3l11.43-12.04-15.96-49.65-27.86-5.05v-38.44l27.86-5.05,15.96-49.65-19.61-20.66,22.32-31.05,25.47,12.47,41.86-30.76-3.82-28,36.02-11.83,13.2,24.95h51.81l13.2-24.95,36.02,11.83-3.82,28,41.86,30.76,25.46-12.47,22.32,31.05-19.6,20.66,15.96,49.65,27.86,5.05v38.44l-27.86,5.05-15.96,49.65,3.9,4.11-43,15.93Z"/>
    <path class="cls-1" d="M249.2,172.89l4.18-12.55,19.85,6.61-4.18,12.55-19.85-6.61Z"/>
    <path class="cls-1" d="M147.39,105.29l9.35-9.35,13.22,13.22-9.35,9.35-13.22-13.22Z"/>
    <path class="cls-1" d="M123.57,139.87l4.18-12.55,19.85,6.61-4.18,12.55-19.85-6.61Z"/>
    <path class="cls-1" d="M123.56,167.16l19.85-6.61,4.18,12.55-19.85,6.61-4.18-12.55Z"/>
  </g>
</svg>