<?xml version="1.0" encoding="UTF-8"?>
<svg id="Layer_1" data-name="Layer 1" xmlns="http://www.w3.org/2000/svg" viewBox="0 0 399.63 399.63">
  <defs>
    <style>
      .cls-1 {
        fill: #ffab0b;
      }
    </style>
  </defs>
  <path class="cls-1" d="M6.66,159.85c3.68,0,6.66-2.98,6.66-6.66V33.3c0-11.02,8.97-19.98,19.98-19.98h199.82c11.02,0,19.98,8.97,19.98,19.98v13.32h-26.64c-18.36,0-33.3,14.94-33.3,33.3,0,3.68,2.98,6.66,6.66,6.66s6.66-2.98,6.66-6.66c0-11.02,8.97-19.98,19.98-19.98h53.28c11.02,0,19.98,8.97,19.98,19.98v53.28c0,11.02-8.97,19.98-19.98,19.98h-53.28c-11.02,0-19.98-8.97-19.98-19.98v-26.64c0-3.68-2.98-6.66-6.66-6.66s-6.66,2.98-6.66,6.66v26.64c0,18.36,14.94,33.3,33.3,33.3h26.64v79.93c0,3.68,2.98,6.66,6.66,6.66s6.66-2.98,6.66-6.66v-79.93h13.32c18.36,0,33.3-14.94,33.3-33.3v-53.28c0-18.36-14.94-33.3-33.3-33.3h-13.32v-13.32c0-18.36-14.94-33.3-33.3-33.3H33.3C14.94,0,0,14.94,0,33.3v119.89c0,3.68,2.98,6.66,6.66,6.66Z"/>
  <circle class="cls-1" cx="33.3" cy="33.3" r="6.66"/>
  <circle class="cls-1" cx="59.95" cy="33.3" r="6.66"/>
  <path class="cls-1" d="M193.16,263.09c3.68,0,6.66-2.98,6.66-6.66v-33.3c0-3.68-2.98-6.66-6.66-6.66h-17.56c-.54-1.47-1.13-2.9-1.77-4.31l12.4-12.41c2.6-2.6,2.6-6.81,0-9.42l-23.55-23.55c-2.6-2.6-6.81-2.6-9.42,0l-12.41,12.41c-1.41-.64-2.85-1.23-4.31-1.78v-17.56c0-3.68-2.98-6.66-6.66-6.66h-33.3c-3.68,0-6.66,2.98-6.66,6.66v17.56c-1.47.55-2.91,1.14-4.31,1.78l-12.41-12.41c-2.6-2.6-6.81-2.6-9.42,0l-23.55,23.55c-2.6,2.6-2.6,6.81,0,9.42l12.4,12.41c-.63,1.41-1.23,2.85-1.77,4.32h-17.56c-3.68,0-6.66,2.98-6.66,6.66v33.3c0,3.68,2.98,6.66,6.66,6.66h17.56c.54,1.47,1.13,2.9,1.77,4.31l-12.41,12.42c-2.6,2.6-2.6,6.82,0,9.42,2.6,2.6,6.81,2.6,9.42,0l15.8-15.81c2.1-2.1,2.56-5.33,1.13-7.93-1.87-3.39-3.38-7.06-4.5-10.91-.82-2.85-3.44-4.82-6.4-4.82h-15.71v-19.98h15.71c2.96,0,5.58-1.96,6.4-4.82,1.11-3.85,2.62-7.52,4.5-10.91,1.43-2.6.97-5.83-1.13-7.93l-11.09-11.1,14.13-14.13,11.1,11.1c2.1,2.1,5.34,2.55,7.93,1.12,3.36-1.86,7.04-3.37,10.91-4.49,2.85-.83,4.82-3.44,4.82-6.4v-15.73h19.98v15.71c0,2.96,1.96,5.57,4.82,6.4,3.87,1.12,7.55,2.63,10.91,4.49,2.6,1.43,5.83.98,7.93-1.12l11.1-11.1,14.13,14.13-11.09,11.1c-2.1,2.1-2.56,5.33-1.13,7.93,1.87,3.39,3.38,7.06,4.5,10.91.82,2.85,3.44,4.82,6.4,4.82h15.71v19.98h-15.71c-2.96,0-5.58,1.96-6.4,4.82-1.11,3.85-2.62,7.52-4.5,10.91-1.43,2.6-.97,5.83,1.13,7.93l11.09,11.1-14.13,14.13-11.1-11.1c-2.1-2.1-5.34-2.54-7.93-1.12-3.36,1.86-7.04,3.37-10.91,4.49-2.85.83-4.82,3.44-4.82,6.4v15.74h-19.98v-15.71c0-2.96-1.96-5.57-4.82-6.4-3.87-1.12-7.55-2.63-10.91-4.49-2.6-1.43-5.83-.98-7.93,1.12l-15.81,15.81c-2.6,2.6-2.6,6.81,0,9.42s6.81,2.6,9.42,0l12.41-12.41c1.41.64,2.85,1.23,4.31,1.78v17.55c0,3.68,2.98,6.66,6.66,6.66h33.3c3.68,0,6.66-2.98,6.66-6.66v-17.56c1.47-.55,2.91-1.14,4.31-1.78l12.41,12.41c2.6,2.6,6.81,2.6,9.42,0l23.55-23.55c2.6-2.6,2.6-6.81,0-9.42l-12.4-12.41c.64-1.41,1.23-2.85,1.77-4.31h17.57,0Z"/>
  <path class="cls-1" d="M113.23,273.08c18.36,0,33.3-14.94,33.3-33.3s-14.94-33.3-33.3-33.3-33.3,14.94-33.3,33.3,14.94,33.3,33.3,33.3ZM113.23,219.8c11.02,0,19.98,8.97,19.98,19.98s-8.97,19.98-19.98,19.98-19.98-8.97-19.98-19.98,8.97-19.98,19.98-19.98Z"/>
  <path class="cls-1" d="M279.74,266.42h-53.28c-14.69,0-26.64,11.95-26.64,26.64v53.28c0,14.69,11.95,26.64,26.64,26.64h25.42c-2.76,7.73-10.08,13.32-18.76,13.32H33.3c-11.02,0-19.98-8.97-19.98-19.98v-186.5c0-3.68-2.98-6.66-6.66-6.66s-6.66,2.98-6.66,6.66v186.5c0,18.36,14.94,33.3,33.3,33.3h199.82c16.08,0,29.53-11.46,32.63-26.64h13.99c14.69,0,26.64-11.95,26.64-26.64v-53.28c0-14.69-11.95-26.64-26.64-26.64h0ZM293.06,346.35c0,7.35-5.97,13.32-13.32,13.32h-53.28c-7.35,0-13.32-5.97-13.32-13.32v-53.28c0-7.35,5.97-13.32,13.32-13.32h53.28c7.35,0,13.32,5.97,13.32,13.32v53.28Z"/>
  <path class="cls-1" d="M276.06,313.75l-39.96-19.98c-2.06-1.03-4.52-.92-6.48.29s-3.16,3.36-3.16,5.67v39.96c0,2.31,1.2,4.45,3.16,5.67,1.07.66,2.28.99,3.5.99,1.02,0,2.04-.23,2.98-.7l39.96-19.98c2.26-1.13,3.68-3.44,3.68-5.96s-1.43-4.83-3.68-5.96ZM239.78,328.91v-18.41l18.41,9.2-18.41,9.2Z"/>
  <path class="cls-1" d="M39.96,86.59v39.96c0,3.68,2.98,6.66,6.66,6.66h66.61c7.35,0,13.32-5.97,13.32-13.32v-26.64c0-7.35-5.97-13.32-13.32-13.32h-4.82c1.29-6.38-.25-12.91-4.29-18.08-4.24-5.44-10.64-8.56-17.54-8.56-2.52,0-4.83,1.43-5.96,3.68l-11.48,22.96h-22.53c-3.68,0-6.66,2.98-6.66,6.66h0ZM90.3,67.41c1.29.59,2.42,1.48,3.33,2.64,1.71,2.18,2.3,4.98,1.63,7.67l-1.81,7.25c-.5,1.99-.05,4.1,1.21,5.71s3.19,2.56,5.24,2.56h13.32v26.64h-33.3v-31.73l10.38-20.75ZM53.28,93.25h13.32v26.64h-13.32v-26.64Z"/>
  <path class="cls-1" d="M253.1,136.74c1.71,0,3.41-.65,4.71-1.95l22.42-22.42c8.21-8.22,8.21-21.59,0-29.81-7.37-7.38-18.9-8.13-27.13-2.26-8.22-5.86-19.76-5.11-27.13,2.26-8.21,8.22-8.21,21.59,0,29.81l22.42,22.42c1.3,1.31,3,1.95,4.71,1.95h0ZM235.39,91.99c1.51-1.51,3.5-2.26,5.48-2.26s3.97.75,5.47,2.26l2.04,2.04c2.5,2.5,6.93,2.5,9.43,0l2.03-2.03c3.02-3.03,7.95-3.01,10.96,0,3.02,3.02,3.02,7.94,0,10.96l-17.71,17.7-17.71-17.71c-3.02-3.02-3.02-7.94,0-10.96Z"/>
  <path class="cls-1" d="M394.96,192.88c-1.59-3.31-5.58-4.7-8.89-3.1s-4.7,5.58-3.1,8.89c2.22,4.6,3.34,9.46,3.34,14.47,0,10.84-5.29,20.4-13.33,26.48-.04-5.08-2.02-9.66-5.18-13.16,3.2-3.54,5.2-8.19,5.2-13.32,0-11.02-8.97-19.98-19.98-19.98s-19.98,8.97-19.98,19.98c0,5.14,2,9.78,5.2,13.32-3.16,3.5-5.14,8.09-5.18,13.16-8.05-6.08-13.33-15.64-13.33-26.48,0-18.36,14.94-33.3,33.3-33.3,4.9,0,9.68,1.08,14.18,3.21,3.36,1.59,7.31.14,8.87-3.17,1.57-3.33.15-7.3-3.18-8.87-6.3-2.98-12.99-4.49-19.88-4.49-25.7,0-46.62,20.91-46.62,46.62s20.92,46.62,46.62,46.62,46.62-20.91,46.62-46.62c0-7.02-1.57-13.84-4.67-20.25ZM353.01,206.48c3.68,0,6.66,2.99,6.66,6.66s-2.98,6.66-6.66,6.66-6.66-2.99-6.66-6.66,2.98-6.66,6.66-6.66ZM346.35,245.77v-5.99c0-3.67,2.98-6.66,6.66-6.66s6.66,2.99,6.66,6.66v5.99c-2.15.44-4.38.67-6.66.67s-4.51-.23-6.66-.67Z"/>
  <path class="cls-1" d="M146.53,113.23h19.98c3.68,0,6.66-2.98,6.66-6.66s-2.98-6.66-6.66-6.66h-19.98c-3.68,0-6.66,2.98-6.66,6.66s2.98,6.66,6.66,6.66Z"/>
  <path class="cls-1" d="M333.03,99.91h19.98v46.62c0,3.68,2.98,6.66,6.66,6.66s6.66-2.98,6.66-6.66v-53.28c0-3.68-2.98-6.66-6.66-6.66h-26.64c-3.68,0-6.66,2.98-6.66,6.66s2.98,6.66,6.66,6.66Z"/>
  <path class="cls-1" d="M359.67,273.08c-3.68,0-6.66,2.98-6.66,6.66v39.96h-19.98c-3.68,0-6.66,2.98-6.66,6.66s2.98,6.66,6.66,6.66h26.64c3.68,0,6.66-2.98,6.66-6.66v-46.62c0-3.68-2.98-6.66-6.66-6.66Z"/>
  <path class="cls-1" d="M113.23,339.69c-3.68,0-6.66,2.98-6.66,6.66v13.32c0,3.68,2.98,6.66,6.66,6.66h66.61c3.68,0,6.66-2.98,6.66-6.66s-2.98-6.66-6.66-6.66h-59.95v-6.66c0-3.68-2.98-6.66-6.66-6.66Z"/>
  <path class="cls-1" d="M39.96,153.19v6.66c0,3.68,2.98,6.66,6.66,6.66s6.66-2.98,6.66-6.66v-6.66c0-3.68-2.98-6.66-6.66-6.66s-6.66,2.98-6.66,6.66Z"/>
</svg>