<?xml version="1.0" encoding="UTF-8"?>
<svg id="Layer_1" data-name="Layer 1" xmlns="http://www.w3.org/2000/svg" viewBox="0 0 400.19 400.19">
  <defs>
    <style>
      .cls-1 {
        fill: #ffab0b;
      }
    </style>
  </defs>
  <g id="Blogger-Writer-Pencil-Browser-Blogging">
    <path class="cls-1" d="M40.02,26.68h13.34v13.34h-13.34v-13.34Z"/>
    <path class="cls-1" d="M66.7,26.68h13.34v13.34h-13.34v-13.34Z"/>
    <path class="cls-1" d="M93.38,26.68h13.34v13.34h-13.34v-13.34Z"/>
    <path class="cls-1" d="M46.69,173.42h106.72c3.68,0,6.67-2.99,6.67-6.67v-66.7c0-3.68-2.99-6.67-6.67-6.67H46.69c-3.68,0-6.67,2.99-6.67,6.67v66.7c0,3.68,2.99,6.67,6.67,6.67ZM53.36,106.72h93.38v53.36H53.36v-53.36Z"/>
    <path class="cls-1" d="M213.44,100.05h106.72v13.34h-106.72v-13.34Z"/>
    <path class="cls-1" d="M186.76,126.73h120.06v13.34h-120.06v-13.34Z"/>
    <path class="cls-1" d="M186.76,153.41h93.38v13.34h-93.38v-13.34Z"/>
    <path class="cls-1" d="M66.7,200.1h173.42v13.34H66.7v-13.34Z"/>
    <path class="cls-1" d="M40.02,226.78h173.42v13.34H40.02v-13.34Z"/>
    <path class="cls-1" d="M40.02,253.45h146.74v13.34H40.02v-13.34Z"/>
    <path class="cls-1" d="M40.02,280.13h146.74v13.34H40.02v-13.34Z"/>
    <path class="cls-1" d="M40.02,306.81h146.74v13.34H40.02v-13.34Z"/>
    <path class="cls-1" d="M40.02,200.1h13.34v13.34h-13.34v-13.34Z"/>
    <path class="cls-1" d="M366.84,40.02h-6.67v-6.67c0-18.42-14.93-33.35-33.35-33.35H33.35C14.93,0,0,14.93,0,33.35v293.47c0,18.42,14.93,33.35,33.35,33.35h6.67v6.67c0,18.42,14.93,33.35,33.35,33.35h293.47c18.42,0,33.35-14.93,33.35-33.35V73.37c0-18.42-14.93-33.35-33.35-33.35ZM354.9,143.67l28.35,28.35-18.88,18.88-28.35-28.35,18.88-18.88ZM234.31,277.8l5.27-13.67,23.21,23.21-13.67,5.27-14.81-14.81ZM235.51,297.81l-10.47,4.07,4.07-10.47,6.4,6.4ZM255.86,261.59l-9.4-9.4,80.17-80.17,9.4,9.4-80.17,80.17ZM345.5,190.89l9.4,9.4-80.17,80.17-9.4-9.4,80.17-80.17ZM13.34,33.35c.03-11.04,8.97-19.98,20.01-20.01h293.47c11.04.03,19.98,8.97,20.01,20.01v20.01H13.34v-20.01ZM33.35,346.83c-11.04-.03-19.98-8.97-20.01-20.01V66.7h333.49v66.23l-114.52,114.52c-.67.66-1.19,1.46-1.53,2.33l-23.54,61.3c-.99,2.46-.41,5.27,1.47,7.14,1.26,1.24,2.96,1.94,4.74,1.93.82,0,1.64-.15,2.4-.47l61.3-23.54c.88-.34,1.67-.87,2.33-1.53l67.37-67.37v99.58c-.03,11.04-8.97,19.98-20.01,20.01H33.35ZM386.85,366.84c-.03,11.04-8.97,19.98-20.01,20.01H73.37c-11.04-.03-19.98-8.97-20.01-20.01v-6.67h273.46c18.42,0,33.35-14.93,33.35-33.35v-112.92l26.68-26.68v179.62ZM386.85,156.74l-26.68-26.68v-23.34h26.68v50.02ZM386.85,93.38h-26.68v-40.02h6.67c11.04.03,19.98,8.97,20.01,20.01v20.01Z"/>
    <path class="cls-1" d="M186.76,100.05h13.34v13.34h-13.34v-13.34Z"/>
  </g>
</svg>