<?xml version="1.0" encoding="UTF-8"?>
<svg id="Layer_1" data-name="Layer 1" xmlns="http://www.w3.org/2000/svg" viewBox="0 0 399.15 400.77">
  <defs>
    <style>
      .cls-1 {
        fill: #ffab0b;
      }
    </style>
  </defs>
  <path class="cls-1" d="M373.04,0H26.1C11.71,0,0,11.7,0,26.08v292.58c0,14.38,11.71,26.08,26.1,26.08h187.56v24.58c0,17.34,14.09,31.44,31.42,31.44s31.44-14.1,31.44-31.44v-24.58h96.52c14.39,0,26.1-11.7,26.1-26.08V26.08C399.15,11.7,387.44,0,373.04,0ZM26.1,19.31h346.94c3.68,0,6.79,3.1,6.79,6.77v29.35h-224.42c-3.24,0-6.26,1.62-8.05,4.33l-9.77,14.77H19.31V26.08c0-3.67,3.11-6.77,6.79-6.77ZM257.21,369.33c0,6.69-5.44,12.13-12.13,12.13s-12.1-5.44-12.1-12.13v-54.37h2.45v.29h19.31v-.29h2.47v54.37ZM373.04,325.43h-96.52v-20.13c0-5.33-4.32-9.66-9.66-9.66h-12.13v-7.59c20.31-2.16,39.13-11.11,53.79-25.77.74-.74,1.45-1.48,2.17-2.24,3.64-3.9,3.43-10.01-.47-13.65-3.9-3.64-10.01-3.43-13.65.47-.56.6-1.13,1.19-1.71,1.77-13.3,13.3-30.98,20.63-49.78,20.63s-36.47-7.32-49.77-20.63c-13.3-13.29-20.62-30.96-20.62-49.76s7.33-36.48,20.63-49.78c27.43-27.44,72.09-27.43,99.55,0,.97.97,1.98,2.05,3.11,3.31,3.55,3.98,9.65,4.34,13.63.79,3.98-3.55,4.34-9.65.79-13.63-1.37-1.54-2.64-2.89-3.87-4.13-29.9-29.88-75.81-34.22-110.36-13.02H55.14c-5.33,0-9.66,4.32-9.66,9.66v41.61c0,5.33,4.32,9.66,9.66,9.66h101.57c-.88,5.08-1.34,10.28-1.34,15.55,0,23.96,9.33,46.49,26.28,63.42,14.64,14.65,33.46,23.61,53.77,25.77v7.59h-12.1c-5.33,0-9.66,4.32-9.66,9.66v20.13H26.1c-3.68,0-6.79-3.1-6.79-6.77V93.83h123.46c3.24,0,6.26-1.62,8.05-4.33l9.77-14.77h219.23v243.92c0,3.67-3.11,6.77-6.79,6.77h0ZM162.38,164h-97.58v-22.29h111.14c-5.64,6.8-10.18,14.3-13.55,22.29h0ZM36.32,48.5c0-5.31,4.33-9.65,9.65-9.65s9.65,4.33,9.65,9.65-4.33,9.65-9.65,9.65-9.65-4.33-9.65-9.65ZM66.57,48.5c0-5.31,4.33-9.65,9.65-9.65s9.67,4.33,9.67,9.65-4.36,9.65-9.67,9.65-9.65-4.33-9.65-9.65ZM96.81,48.5c0-5.31,4.33-9.65,9.65-9.65s9.67,4.33,9.67,9.65-4.33,9.65-9.67,9.65-9.65-4.33-9.65-9.65ZM148.41,228.33c5.33,0,9.66,4.32,9.66,9.66s-4.32,9.66-9.66,9.66H55.14c-5.33,0-9.66-4.32-9.66-9.66s4.32-9.66,9.66-9.66h93.27ZM55.14,260.4h111.54c5.33,0,9.66,4.32,9.66,9.66s-4.32,9.66-9.66,9.66H55.14c-5.33,0-9.66-4.32-9.66-9.66s4.32-9.66,9.66-9.66h0ZM45.48,207.17c0-5.33,4.32-9.66,9.66-9.66h85.65c5.33,0,9.66,4.32,9.66,9.66s-4.32,9.66-9.66,9.66H55.14c-5.33,0-9.66-4.32-9.66-9.66ZM240.43,212.6c0,12.42-10.35,22.52-23.07,22.52-8.79,0-16.7-4.76-20.63-12.43-2.44-4.74-.56-10.57,4.18-13,4.74-2.44,10.57-.56,13,4.18.46.89,1.64,1.94,3.45,1.94,2.07,0,3.76-1.44,3.76-3.21,0-1.04-.13-1.55-.19-1.73-.85-.63-3.89-1.32-5.73-1.74-6.79-1.55-20.93-4.77-20.93-22.28,0-12.43,10.36-22.54,23.09-22.54,8.79,0,16.7,4.76,20.63,12.43,2.44,4.74.56,10.57-4.18,13-4.75,2.44-10.57.56-13-4.18-.46-.89-1.64-1.94-3.45-1.94-2.08,0-3.78,1.45-3.78,3.23,0,1.02.13,1.53.19,1.71.85.63,3.88,1.32,5.72,1.74,6.8,1.55,20.94,4.78,20.94,22.3h0ZM266.5,183.61v6.44h13.02c5.33,0,9.66,4.32,9.66,9.66s-4.32,9.66-9.66,9.66h-13.02v6.44h13.02c5.33,0,9.66,4.32,9.66,9.66s-4.32,9.66-9.66,9.66h-22.67c-5.33,0-9.66-4.32-9.66-9.66v-51.51c0-5.33,4.32-9.66,9.66-9.66h22.67c5.33,0,9.66,4.32,9.66,9.66s-4.32,9.66-9.66,9.66h-13.02ZM353.66,173.96v51.51c0,5.33-4.32,9.66-9.66,9.66s-9.66-4.32-9.66-9.66v-21.15l-.82,1.16c-1.81,2.56-4.75,4.08-7.88,4.08s-6.07-1.52-7.88-4.08l-.82-1.16v21.15c0,5.33-4.32,9.66-9.66,9.66s-9.66-4.32-9.66-9.66v-51.51c0-4.21,2.72-7.93,6.73-9.2,4.01-1.28,8.38.19,10.81,3.62l10.48,14.8,10.48-14.8c2.43-3.43,6.8-4.9,10.81-3.62,4.01,1.27,6.73,5,6.73,9.2Z"/>
</svg>