<?xml version="1.0" encoding="UTF-8"?>
<svg id="Layer_1" data-name="Layer 1" xmlns="http://www.w3.org/2000/svg" viewBox="0 0 400 400">
  <defs>
    <style>
      .cls-1 {
        fill: #ffab0b;
      }
    </style>
  </defs>
  <path class="cls-1" d="M349.62,50.38C317.12,17.89,273.93,0,227.98,0s-89.15,17.89-121.64,50.38c-2.37,2.37-4.7,4.84-6.92,7.34-2.16,2.42-1.94,6.13.48,8.29,2.42,2.16,6.13,1.94,8.29-.48,2.07-2.33,4.24-4.63,6.46-6.84,30.27-30.27,70.52-46.95,113.34-46.95s83.06,16.67,113.33,46.95c62.49,62.49,62.49,164.18,0,226.67-30.27,30.27-70.52,46.95-113.33,46.95s-83.06-16.67-113.34-46.95c-26.32-26.32-42.74-61.19-46.23-98.18-3.45-36.51,5.76-73.35,25.93-103.71,1.79-2.7,1.06-6.35-1.64-8.14-2.7-1.79-6.34-1.06-8.14,1.64-21.65,32.6-31.54,72.13-27.84,111.31,2.86,30.31,13.82,59.29,31.4,83.88l-17.24,17.24c-2.29-2.29-6.01-2.29-8.3,0l-52.66,52.66c-13.24,13.24-13.24,34.78,0,48.02,6.62,6.62,15.31,9.93,24.01,9.93s17.39-3.31,24.01-9.93l14.88-14.88c2.29-2.29,2.29-6.01,0-8.3s-6.01-2.29-8.3,0l-14.88,14.88c-4.2,4.2-9.77,6.51-15.71,6.51s-11.51-2.31-15.71-6.51-6.51-9.77-6.51-15.71,2.31-11.51,6.51-15.71l48.51-48.51,31.41,31.41-17.02,17.02c-2.29,2.29-2.29,6.01,0,8.3s6.01,2.29,8.3,0l21.17-21.17c2.29-2.29,2.29-6.01,0-8.3l17.21-17.21c29.01,20.87,63.72,32.14,100.17,32.14,45.95,0,89.15-17.89,121.64-50.38,32.49-32.49,50.39-75.69,50.39-121.64s-17.89-89.15-50.38-121.64h0ZM102.3,320.81l-23.11-23.11,16.15-16.15c3.46,4.2,7.13,8.25,11,12.12,3.88,3.88,7.92,7.55,12.1,11.01l-16.14,16.14Z"/>
  <path class="cls-1" d="M288.04,297.18c14.1-6.77,26.92-15.86,38.08-27.02,54.11-54.11,54.11-142.16,0-196.28-54.11-54.11-142.16-54.11-196.28,0-54.11,54.11-54.11,142.16,0,196.28,26.35,26.35,61.92,40.63,98.3,40.63,12.33,0,24.75-1.64,36.93-5.01,3.13-.86,4.96-4.1,4.1-7.22-.86-3.13-4.1-4.96-7.22-4.1-44.07,12.18-91.51-.32-123.8-32.61-49.54-49.54-49.54-130.14,0-179.67,49.54-49.53,130.13-49.54,179.67,0,49.54,49.54,49.54,130.14,0,179.67-10.22,10.22-21.95,18.55-34.86,24.74-2.92,1.4-4.16,4.91-2.75,7.83,1.4,2.92,4.91,4.15,7.83,2.75h0Z"/>
  <path class="cls-1" d="M235.05,145.27c3.24,0,5.87-2.63,5.87-5.87s-2.63-5.87-5.87-5.87h-27.49c-3.24,0-5.87,2.63-5.87,5.87v65.25c0,3.24,2.63,5.87,5.87,5.87h27.49c3.24,0,5.87-2.63,5.87-5.87s-2.63-5.87-5.87-5.87h-21.62v-20.88h19.59c3.24,0,5.87-2.63,5.87-5.87s-2.63-5.87-5.87-5.87h-19.59v-20.88h21.62Z"/>
  <path class="cls-1" d="M165.46,199.08c-7.2,0-14.15-2.93-18.6-7.83-2.18-2.4-5.89-2.59-8.29-.41-2.4,2.18-2.59,5.89-.41,8.29,6.63,7.32,16.84,11.69,27.3,11.69,12.53,0,23.44-8.22,25.39-19.11,2.24-12.57-7.64-20.99-17.64-24.67-8.47-3.13-16.33-6.54-18.32-7.41-2.1-1.54-3.13-4-2.74-6.67.48-3.35,3.06-6.05,6.89-7.2,10.57-3.18,20.12,4.48,20.3,4.63,2.48,2.07,6.17,1.74,8.25-.73,2.09-2.48,1.77-6.19-.72-8.27-.58-.49-14.44-11.92-31.22-6.86-8.2,2.47-14,8.9-15.13,16.78-1.05,7.33,2.12,14.39,8.29,18.41.26.17.53.32.81.44.38.17,9.38,4.17,19.52,7.91,7.28,2.69,10.98,6.91,10.14,11.59-.82,4.57-5.94,9.43-13.83,9.43h0Z"/>
  <path class="cls-1" d="M324.29,172.02c0-21.39-17.4-38.8-38.8-38.8s-38.8,17.4-38.8,38.8,17.4,38.8,38.8,38.8c21.39,0,38.8-17.4,38.8-38.8ZM258.44,172.02c0-14.92,12.14-27.05,27.05-27.05s27.05,12.14,27.05,27.05-12.14,27.05-27.05,27.05-27.05-12.14-27.05-27.05Z"/>
</svg>