<?xml version="1.0" encoding="UTF-8"?>
<svg id="Layer_1" data-name="Layer 1" xmlns="http://www.w3.org/2000/svg" viewBox="0 0 400 400">
  <defs>
    <style>
      .cls-1 {
        fill: #ffab0b;
      }
    </style>
  </defs>
  <g id="_18-Web_design" data-name=" 18-Web design">
    <path class="cls-1" d="M368.75,350H31.25c-17.25-.02-31.23-14-31.25-31.25V56.25c.02-17.25,14-31.23,31.25-31.25h12.5v12.5h-12.5c-10.36,0-18.75,8.39-18.75,18.75v262.5c0,10.36,8.39,18.75,18.75,18.75h337.5c10.36,0,18.75-8.39,18.75-18.75V56.25c0-10.36-8.39-18.75-18.75-18.75h-162.5v-12.5h162.5c17.25.02,31.23,14,31.25,31.25v262.5c-.02,17.25-14,31.23-31.25,31.25Z"/>
    <path class="cls-1" d="M56.25,25h12.5v12.5h-12.5v-12.5Z"/>
    <path class="cls-1" d="M81.25,25h87.5v12.5h-87.5v-12.5Z"/>
    <path class="cls-1" d="M118.83,367.16l6.24-25,12.12,3.02-6.24,25-12.12-3.02Z"/>
    <path class="cls-1" d="M275,400H112.5c-3.45,0-6.25-2.8-6.25-6.25v-12.5c0-10.36,8.39-18.75,18.75-18.75h129.49l-4.31-17.24,12.13-3.03,5.24,20.95c8.09,2.28,13.68,9.66,13.69,18.06v12.5c0,3.45-2.8,6.25-6.25,6.25ZM118.75,387.5h150v-6.25c0-3.45-2.8-6.25-6.25-6.25H125c-3.45,0-6.25,2.8-6.25,6.25v6.25Z"/>
    <path class="cls-1" d="M6.25,287.5h387.5v12.5H6.25v-12.5Z"/>
    <path class="cls-1" d="M25,312.5h12.5v12.5h-12.5v-12.5Z"/>
    <path class="cls-1" d="M50,312.5h37.5v12.5h-37.5v-12.5Z"/>
    <path class="cls-1" d="M79.93,162.17c-1.66,0-3.25-.66-4.42-1.83l-17.1-17.11c-2.44-2.44-2.44-6.4,0-8.84L190.98,1.83c2.44-2.44,6.4-2.44,8.84,0l17.11,17.11c2.44,2.44,2.44,6.4,0,8.84L84.38,160.34c-1.18,1.18-2.78,1.84-4.44,1.83h0ZM71.67,138.81l8.26,8.27L203.68,23.33l-8.29-8.24-123.73,123.73Z"/>
    <path class="cls-1" d="M50,175c-3.45,0-6.25-2.8-6.25-6.25,0-.85.17-1.68.51-2.46l12.83-29.94,11.49,4.93-6.7,15.6,15.63-6.7,4.92,11.49-29.96,12.83c-.78.34-1.62.51-2.46.51h0Z"/>
    <path class="cls-1" d="M368.75,275H31.25c-3.45,0-6.25-2.8-6.25-6.25V56.25c0-3.45,2.8-6.25,6.25-6.25h87.5v12.5H37.5v200h156.25V56.25c0-3.45,2.8-6.25,6.25-6.25h168.75c3.45,0,6.25,2.8,6.25,6.25v212.5c0,3.45-2.8,6.25-6.25,6.25ZM206.25,262.5h156.25V62.5h-156.25v200Z"/>
    <path class="cls-1" d="M50,187.5h12.5v12.5h-12.5v-12.5Z"/>
    <path class="cls-1" d="M75,187.5h106.25v12.5h-106.25v-12.5Z"/>
    <path class="cls-1" d="M50,212.5h131.25v12.5H50v-12.5Z"/>
    <path class="cls-1" d="M50,237.5h131.25v12.5H50v-12.5Z"/>
    <path class="cls-1" d="M200,156.25h168.75v12.5h-168.75v-12.5Z"/>
    <path class="cls-1" d="M204.42,148.17l-8.84-8.84,62.5-62.5c2.44-2.44,6.4-2.44,8.84,0l50,50-8.84,8.84-45.58-45.58-58.08,58.08Z"/>
    <path class="cls-1" d="M364.33,129.42l-39.33-39.33-26.83,26.83-8.84-8.84,31.25-31.25c2.44-2.44,6.4-2.44,8.84,0l43.75,43.75-8.84,8.84Z"/>
    <path class="cls-1" d="M343.75,250h-118.75c-3.45,0-6.25-2.8-6.25-6.25v-56.25c0-3.45,2.8-6.25,6.25-6.25h118.75c3.45,0,6.25,2.8,6.25,6.25v56.25c0,3.45-2.8,6.25-6.25,6.25ZM231.25,237.5h106.25v-43.75h-106.25v43.75Z"/>
    <path class="cls-1" d="M222.35,193.07l5.35-11.29,118.79,56.24-5.35,11.29-118.79-56.24Z"/>
    <path class="cls-1" d="M222.38,238.13l118.79-56.24,5.35,11.29-118.79,56.24-5.35-11.29Z"/>
  </g>
</svg>